<svg width="96" height="26" viewBox="0 0 96 26" fill="none" xmlns="http://www.w3.org/2000/svg">
<g filter="url(#filter0_b_2516_4356)">
<rect width="96" height="26" rx="6" fill="white" fill-opacity="0.75"/>
<path d="M18.3534 18.6134H14.14C12.0334 18.6134 11.3334 17.2134 11.3334 15.8067V10.1934C11.3334 8.08672 12.0334 7.38672 14.14 7.38672H18.3534C20.46 7.38672 21.16 8.08672 21.16 10.1934V15.8067C21.16 17.9134 20.4534 18.6134 18.3534 18.6134Z" stroke="#C45312" stroke-width="1.5" stroke-linecap="round" stroke-linejoin="round"/>
<path d="M23.0134 16.4001L21.16 15.1001V10.8934L23.0134 9.59342C23.92 8.96009 24.6667 9.34675 24.6667 10.4601V15.5401C24.6667 16.6534 23.92 17.0401 23.0134 16.4001Z" stroke="#C45312" stroke-width="1.5" stroke-linecap="round" stroke-linejoin="round"/>
<path d="M17.6666 12.3335C18.2189 12.3335 18.6666 11.8858 18.6666 11.3335C18.6666 10.7812 18.2189 10.3335 17.6666 10.3335C17.1143 10.3335 16.6666 10.7812 16.6666 11.3335C16.6666 11.8858 17.1143 12.3335 17.6666 12.3335Z" stroke="#C45312" stroke-width="1.5" stroke-linecap="round" stroke-linejoin="round"/>
<path d="M38.322 8.984H33.408V12.176C33.6227 11.8773 33.94 11.6347 34.36 11.448C34.78 11.252 35.2327 11.154 35.718 11.154C36.4927 11.154 37.1227 11.3173 37.608 11.644C38.0933 11.9613 38.4387 12.3767 38.644 12.89C38.8587 13.394 38.966 13.9307 38.966 14.5C38.966 15.172 38.84 15.774 38.588 16.306C38.336 16.838 37.9487 17.258 37.426 17.566C36.9127 17.874 36.2733 18.028 35.508 18.028C34.528 18.028 33.7347 17.776 33.128 17.272C32.5213 16.768 32.1527 16.096 32.022 15.256H33.268C33.3893 15.788 33.646 16.2033 34.038 16.502C34.43 16.8007 34.9247 16.95 35.522 16.95C36.2593 16.95 36.8147 16.7307 37.188 16.292C37.5613 15.844 37.748 15.256 37.748 14.528C37.748 13.8 37.5613 13.24 37.188 12.848C36.8147 12.4467 36.264 12.246 35.536 12.246C35.0413 12.246 34.6073 12.3673 34.234 12.61C33.87 12.8433 33.604 13.1653 33.436 13.576H32.232V7.864H38.322V8.984ZM40.631 10.426C40.6963 9.56733 41.0277 8.89533 41.625 8.41C42.2223 7.92467 42.997 7.682 43.949 7.682C44.5837 7.682 45.1297 7.79867 45.587 8.032C46.0537 8.256 46.4037 8.564 46.637 8.956C46.8797 9.348 47.001 9.79133 47.001 10.286C47.001 10.8647 46.833 11.364 46.497 11.784C46.1703 12.204 45.741 12.4747 45.209 12.596V12.666C45.8157 12.8153 46.2963 13.1093 46.651 13.548C47.0057 13.9867 47.183 14.5607 47.183 15.27C47.183 15.802 47.0617 16.2827 46.819 16.712C46.5763 17.132 46.2123 17.4633 45.727 17.706C45.2417 17.9487 44.6583 18.07 43.977 18.07C42.9877 18.07 42.1757 17.8133 41.541 17.3C40.9063 16.7773 40.5517 16.04 40.477 15.088H41.709C41.7743 15.648 42.003 16.1053 42.395 16.46C42.787 16.8147 43.3097 16.992 43.963 16.992C44.6163 16.992 45.111 16.824 45.447 16.488C45.7923 16.1427 45.965 15.6993 45.965 15.158C45.965 14.458 45.7317 13.954 45.265 13.646C44.7983 13.338 44.0937 13.184 43.151 13.184H42.829V12.12H43.165C44.0237 12.1107 44.6723 11.9707 45.111 11.7C45.5497 11.42 45.769 10.9907 45.769 10.412C45.769 9.91733 45.6057 9.52067 45.279 9.222C44.9617 8.92333 44.5043 8.774 43.907 8.774C43.3283 8.774 42.8617 8.92333 42.507 9.222C42.1523 9.52067 41.9423 9.922 41.877 10.426H40.631ZM62.0716 10.188C62.6689 10.188 63.2009 10.314 63.6676 10.566C64.1342 10.8087 64.5029 11.1773 64.7736 11.672C65.0442 12.1667 65.1796 12.7687 65.1796 13.478V18H63.9196V13.66C63.9196 12.8947 63.7282 12.3113 63.3456 11.91C62.9722 11.4993 62.4636 11.294 61.8196 11.294C61.1569 11.294 60.6296 11.5087 60.2376 11.938C59.8456 12.358 59.6496 12.9693 59.6496 13.772V18H58.3896V13.66C58.3896 12.8947 58.1982 12.3113 57.8156 11.91C57.4422 11.4993 56.9336 11.294 56.2896 11.294C55.6269 11.294 55.0996 11.5087 54.7076 11.938C54.3156 12.358 54.1196 12.9693 54.1196 13.772V18H52.8456V10.328H54.1196V11.434C54.3716 11.0327 54.7076 10.7247 55.1276 10.51C55.5569 10.2953 56.0282 10.188 56.5416 10.188C57.1856 10.188 57.7549 10.3327 58.2496 10.622C58.7442 10.9113 59.1129 11.336 59.3556 11.896C59.5702 11.3547 59.9249 10.9347 60.4196 10.636C60.9142 10.3373 61.4649 10.188 62.0716 10.188ZM67.9274 9.082C67.6847 9.082 67.4794 8.998 67.3114 8.83C67.1434 8.662 67.0594 8.45667 67.0594 8.214C67.0594 7.97133 67.1434 7.766 67.3114 7.598C67.4794 7.43 67.6847 7.346 67.9274 7.346C68.1607 7.346 68.3567 7.43 68.5154 7.598C68.6834 7.766 68.7674 7.97133 68.7674 8.214C68.7674 8.45667 68.6834 8.662 68.5154 8.83C68.3567 8.998 68.1607 9.082 67.9274 9.082ZM68.5434 10.328V18H67.2694V10.328H68.5434ZM74.4527 10.188C75.3861 10.188 76.1421 10.4727 76.7207 11.042C77.2994 11.602 77.5887 12.414 77.5887 13.478V18H76.3287V13.66C76.3287 12.8947 76.1374 12.3113 75.7547 11.91C75.3721 11.4993 74.8494 11.294 74.1867 11.294C73.5147 11.294 72.9781 11.504 72.5767 11.924C72.1847 12.344 71.9887 12.9553 71.9887 13.758V18H70.7147V10.328H71.9887V11.42C72.2407 11.028 72.5814 10.7247 73.0107 10.51C73.4494 10.2953 73.9301 10.188 74.4527 10.188ZM82.3858 18.126C81.7978 18.126 81.2705 18.028 80.8038 17.832C80.3371 17.6267 79.9685 17.3467 79.6978 16.992C79.4271 16.628 79.2778 16.2127 79.2498 15.746H80.5658C80.6031 16.1287 80.7805 16.4413 81.0978 16.684C81.4245 16.9267 81.8491 17.048 82.3718 17.048C82.8571 17.048 83.2398 16.9407 83.5198 16.726C83.7998 16.5113 83.9398 16.2407 83.9398 15.914C83.9398 15.578 83.7905 15.3307 83.4918 15.172C83.1931 15.004 82.7311 14.8407 82.1058 14.682C81.5365 14.5327 81.0698 14.3833 80.7058 14.234C80.3511 14.0753 80.0431 13.8467 79.7818 13.548C79.5298 13.24 79.4038 12.8387 79.4038 12.344C79.4038 11.952 79.5205 11.5927 79.7538 11.266C79.9871 10.9393 80.3185 10.6827 80.7478 10.496C81.1771 10.3 81.6671 10.202 82.2178 10.202C83.0671 10.202 83.7531 10.4167 84.2758 10.846C84.7985 11.2753 85.0785 11.8633 85.1158 12.61H83.8418C83.8138 12.2087 83.6505 11.8867 83.3518 11.644C83.0625 11.4013 82.6705 11.28 82.1758 11.28C81.7185 11.28 81.3545 11.378 81.0838 11.574C80.8131 11.77 80.6778 12.0267 80.6778 12.344C80.6778 12.596 80.7571 12.806 80.9158 12.974C81.0838 13.1327 81.2891 13.2633 81.5318 13.366C81.7838 13.4593 82.1291 13.5667 82.5678 13.688C83.1185 13.8373 83.5665 13.9867 83.9118 14.136C84.2571 14.276 84.5511 14.4907 84.7938 14.78C85.0458 15.0693 85.1765 15.4473 85.1858 15.914C85.1858 16.334 85.0691 16.712 84.8358 17.048C84.6025 17.384 84.2711 17.65 83.8418 17.846C83.4218 18.0327 82.9365 18.126 82.3858 18.126Z" fill="#C45312"/>
</g>
<defs>
<filter id="filter0_b_2516_4356" x="-10" y="-10" width="116" height="46" filterUnits="userSpaceOnUse" color-interpolation-filters="sRGB">
<feFlood flood-opacity="0" result="BackgroundImageFix"/>
<feGaussianBlur in="BackgroundImageFix" stdDeviation="5"/>
<feComposite in2="SourceAlpha" operator="in" result="effect1_backgroundBlur_2516_4356"/>
<feBlend mode="normal" in="SourceGraphic" in2="effect1_backgroundBlur_2516_4356" result="shape"/>
</filter>
</defs>
</svg>
