<svg width="127" height="20" viewBox="0 0 127 20" fill="none" xmlns="http://www.w3.org/2000/svg">
<g clip-path="url(#clip0_2401_1307)">
<path d="M16.3893 19.4294L10.1668 14.8561L3.94426 19.4294L6.33342 12.0436L0.114258 7.49941H7.79259L10.1668 0.101074L12.5409 7.49941H20.2184L14.0001 12.0436L16.3893 19.4294Z" fill="#FF6B00"/>
</g>
<g clip-path="url(#clip1_2401_1307)">
<path d="M43.0559 19.4294L36.8334 14.8561L30.6109 19.4294L33.0001 12.0436L26.7809 7.49941H34.4592L36.8334 0.101074L39.2076 7.49941H46.885L40.6667 12.0436L43.0559 19.4294Z" fill="#FF6B00"/>
</g>
<g clip-path="url(#clip2_2401_1307)">
<path d="M69.7226 19.4294L63.5001 14.8561L57.2776 19.4294L59.6668 12.0436L53.4476 7.49941H61.126L63.5001 0.101074L65.8743 7.49941H73.5518L67.3335 12.0436L69.7226 19.4294Z" fill="#FF6B00"/>
</g>
<g clip-path="url(#clip3_2401_1307)">
<path d="M96.3893 19.4294L90.1668 14.8561L83.9443 19.4294L86.3334 12.0436L80.1143 7.49941H87.7926L90.1668 0.101074L92.5409 7.49941H100.218L94.0001 12.0436L96.3893 19.4294Z" fill="#FF6B00"/>
</g>
<g clip-path="url(#clip4_2401_1307)">
<path d="M123.056 19.4294L116.833 14.8561L110.611 19.4294L113 12.0436L106.781 7.49941H114.459L116.833 0.101074L119.208 7.49941H126.885L120.667 12.0436L123.056 19.4294Z" fill="#FF6B00"/>
</g>
<defs>
<clipPath id="clip0_2401_1307">
<rect width="20" height="20" fill="white" transform="translate(0.166626)"/>
</clipPath>
<clipPath id="clip1_2401_1307">
<rect width="20" height="20" fill="white" transform="translate(26.8333)"/>
</clipPath>
<clipPath id="clip2_2401_1307">
<rect width="20" height="20" fill="white" transform="translate(53.5)"/>
</clipPath>
<clipPath id="clip3_2401_1307">
<rect width="20" height="20" fill="white" transform="translate(80.1666)"/>
</clipPath>
<clipPath id="clip4_2401_1307">
<rect width="20" height="20" fill="white" transform="translate(106.833)"/>
</clipPath>
</defs>
</svg>
